:version 1.10
:name ASF
:units
  mass 1
  length 1
  angle deg
:documentation
  ASF file generated by Kaydara
:root
  axis xyz
  order  tx ty tz rx ry rz
  position 0 0 0
  orientation 0 0 0
:bonedata
  begin
    id 1
    name SpineDummy
    direction 0.999998 -0.00179978 1.38929e-006
    length 3.60008
    axis 0 0 0 xyz
  end
  begin
    id 2
    name Spine
    direction 0.964365 0.262802 0.0305839
    length 8.13928
    axis 1.33928 -1.75354 15.2838 xyz
    dof rx ry rz
  end
  begin
    id 3
    name Spine1
    direction 0.811168 0.572065 0.12144
    length 7.14954
    axis 2.2224 -6.9761 35.2157 xyz
    dof rx ry rz
  end
  begin
    id 4
    name Neck
    direction 0 0 0
    length 0
    axis 2.2224 -6.9761 35.2157 xyz
    dof rx ry rz
  end
  begin
    id 5
    name HeadDummy
    direction 0.810939 0.572387 0.121455
    length 3.55534
    axis 2.2224 -6.9761 35.2157 xyz
  end
  begin
    id 6
    name Head
    direction 0.998226 -0.000232542 0.0595419
    length 7.35666
    axis -3.03688 -3.41352 -0.0133467 xyz
    dof rx ry rz
  end
  begin
    id 7
    name R_ClavicleDummy
    direction 0.531669 -0.194489 -0.824319
    length 2.49392
    axis 2.2224 -6.9761 35.2157 xyz
  end
  begin
    id 8
    name R_Clavicle
    direction -0.155119 0.0480802 -0.986725
    length 4.485
    axis -54.2764 80.6538 162.779 xyz
    dof rx ry rz
  end
  begin
    id 9
    name R_UpperArm
    direction -0.955567 0.200068 -0.216484
    length 10.1122
    axis -72.9943 12.5026 168.175 xyz
    dof rx ry rz
  end
  begin
    id 10
    name R_Forearm
    direction -0.61433 0.385743 0.688332
    length 9.39148
    axis -117.015 -43.4982 147.875 xyz
    dof rx ry rz
  end
  begin
    id 11
    name R_Hand
    direction -0.699429 0.0170333 0.714499
    length 3.66324
    axis -45.0303 -36.7097 175.478 xyz
    dof rx ry rz
  end
  begin
    id 12
    name L_ClavicleDummy
    direction 0.40287 -0.36502 0.839319
    length 2.49392
    axis 2.2224 -6.9761 35.2157 xyz
  end
  begin
    id 13
    name L_Clavicle
    direction -0.231271 -0.0726419 0.970174
    length 4.485
    axis 18.4357 -75.9711 -162.563 xyz
    dof rx ry rz
  end
  begin
    id 14
    name L_UpperArm
    direction -0.917494 0.144359 0.370629
    length 10.1122
    axis 56.0417 -21.7544 171.058 xyz
    dof rx ry rz
  end
  begin
    id 15
    name L_Forearm
    direction -0.496786 0.615074 -0.612281
    length 9.39148
    axis 89.8094 37.7546 128.927 xyz
    dof rx ry rz
  end
  begin
    id 16
    name L_Hand
    direction -0.409932 0.64962 -0.640274
    length 3.66324
    axis -0.424369 32.133 128.52 xyz
    dof rx ry rz
  end
  begin
    id 17
    name L_ThighDummy
    direction -1.84081e-006 1.87549e-006 1
    length 3.13049
    axis 0 0 0 xyz
  end
  begin
    id 18
    name L_Thigh
    direction -0.947739 0.307978 0.083308
    length 17.9961
    axis 173.219 -4.77873 161.998 xyz
    dof rx ry rz
  end
  begin
    id 19
    name L_Calf
    direction -0.728814 -0.684427 0.0197583
    length 13.3367
    axis 167.331 -1.13214 -136.799 xyz
    dof rx ry rz
  end
  begin
    id 20
    name L_Foot
    direction -0.9028 0.418719 0.0981191
    length 5.8674
    axis 163.436 11.5135 -155.37 xyz
    dof rx ry rz
  end
  begin
    id 21
    name L_Toe0
    direction -0.35341 0.886259 0.299411
    length 4.75286
    axis 169.316 -17.4222 111.74 xyz
    dof rx ry rz
  end
  begin
    id 22
    name R_ThighDummy
    direction 9.32778e-007 -8.82053e-007 -1
    length 3.13049
    axis 0 0 0 xyz
  end
  begin
    id 23
    name R_Thigh
    direction -0.925064 0.37528 -0.0585023
    length 17.9961
    axis -178.698 3.35385 157.919 xyz
    dof rx ry rz
  end
  begin
    id 24
    name R_Calf
    direction -0.68969 -0.718776 -0.0876886
    length 13.3367
    axis -160.504 5.03065 -133.817 xyz
    dof rx ry rz
  end
  begin
    id 25
    name R_Foot
    direction -0.857405 0.418858 -0.299022
    length 5.8674
    axis -161.328 4.38911 -154.413 xyz
    dof rx ry rz
  end
  begin
    id 26
    name R_Toe0
    direction -0.100745 0.952789 -0.286433
    length 4.75286
    axis 171.683 16.6445 96.0359 xyz
    dof rx ry rz
  end
:hierarchy
  begin
    root SpineDummy L_ThighDummy R_ThighDummy
    SpineDummy Spine
    Spine Spine1
    Spine1 Neck
    Neck HeadDummy R_ClavicleDummy L_ClavicleDummy
    HeadDummy Head
    R_ClavicleDummy R_Clavicle
    R_Clavicle R_UpperArm
    R_UpperArm R_Forearm
    R_Forearm R_Hand
    L_ClavicleDummy L_Clavicle
    L_Clavicle L_UpperArm
    L_UpperArm L_Forearm
    L_Forearm L_Hand
    L_ThighDummy L_Thigh
    L_Thigh L_Calf
    L_Calf L_Foot
    L_Foot L_Toe0
    R_ThighDummy R_Thigh
    R_Thigh R_Calf
    R_Calf R_Foot
    R_Foot R_Toe0
  end

:SAMPLES-PER-SECOND 30
:FULLY-SPECIFIED
:DEGREES
250
root  7.71893 9.07494 23.1567 172.888 30.0526 143.472
Spine  -20.3287 -10.1227 31.0756
Spine1  -23.294 44.6525 -15.5848
Neck  3.97569e-016 0 -2.38542e-015
Head  -25.1289 2.75775 33.9526
R_Clavicle  0.57976 -14.3719 4.33794
R_UpperArm  50.901 -47.8871 61.5356
R_Forearm  9.59706 9.44842 -7.29821
R_Hand  -42.917 40.1448 -105.693
L_Clavicle  -0.233293 6.31789 0.540487
L_UpperArm  -41.5777 -21.8018 -17.8374
L_Forearm  32.5693 -14.835 -17.823
L_Hand  -0.435713 -13.7466 6.62264
L_Thigh  -0.0443571 -11.2348 -11.7622
L_Calf  -45.4157 7.56724 -105.242
L_Foot  -10.2765 -25.3203 65.842
L_Toe0  -3.56425 0.405962 -0.473399
R_Thigh  -30.4694 -19.6251 13.3983
R_Calf  -5.09939 -0.603371 -1.93608
R_Foot  3.32637 10.5933 -16.3793
R_Toe0  -1.78853 -0.272584 -17.3235
251
root  8.04761 9.22472 21.8762 163.448 28.7847 146.432
Spine  -19.7782 -6.78474 30.152
Spine1  -21.6741 40.2268 -10.6275
Neck  3.97569e-016 0 -2.38542e-015
Head  -25.0681 6.67832 33.6404
R_Clavicle  0.871192 -5.89116 5.2447
R_UpperArm  60.624 -49.6468 45.0425
R_Forearm  4.93547 6.75843 -4.28838
R_Hand  -38.3163 35.1271 -105.362
L_Clavicle  -0.0746988 -0.540737 0.625004
L_UpperArm  -39.2454 -20.8945 -28.0539
L_Forearm  31.037 -14.5907 -17.5075
L_Hand  -0.250427 -14.0857 4.00392
L_Thigh  -13.0107 -18.124 -4.61869
L_Calf  -43.121 7.66103 -102.009
L_Foot  -4.93093 -20.646 47.4498
L_Toe0  -1.2332 0.0278462 5.45694
R_Thigh  -14.5015 -10.2823 19.1561
R_Calf  -0.406298 2.53104 7.90962
R_Foot  2.68559 6.23686 -16.0244
R_Toe0  -1.78853 -0.27263 -17.3235
252
root  8.47328 10.3219 20.9044 148.975 24.8255 146.708
Spine  -21.9908 -8.12579 25.9104
Spine1  -21.2596 35.9628 -5.40161
Neck  3.97569e-016 0 -2.38542e-015
Head  -17.4658 5.48012 38.2412
R_Clavicle  1.22642 0.486474 6.15721
R_UpperArm  60.0006 -46.9428 34.1568
R_Forearm  5.33359 7.02632 -4.95057
R_Hand  -35.3827 35.6677 -99.9383
L_Clavicle  0.35869 -2.45506 -1.76471
L_UpperArm  -39.0045 -15.0006 -28.6395
L_Forearm  27.7541 -8.32216 -9.73852
L_Hand  -0.151415 -12.2642 3.18075
L_Thigh  -24.2267 -19.0468 0.749804
L_Calf  -24.8953 7.77153 -96.9357
L_Foot  0.355207 -12.5963 37.714
L_Toe0  6.24262 -2.3988 13.4119
R_Thigh  1.78388 -0.637555 23.6668
R_Calf  1.03299 2.9897 9.33368
R_Foot  3.14493 9.55451 -14.44
R_Toe0  -1.78853 -0.272704 -17.3235
253
root  9.07645 11.8714 20.1895 134.037 18.7957 148.183
Spine  -25.5689 -11.7218 23.4998
Spine1  -23.1094 33.448 -4.29911
Neck  3.97569e-016 0 -2.38542e-015
Head  -7.31317 -0.784271 43.1345
R_Clavicle  1.24921 3.67353 5.77323
R_UpperArm  56.9116 -38.9616 26.2495
R_Forearm  0.367992 6.71494 -5.79003
R_Hand  -30.5242 39.1838 -86.353
L_Clavicle  0.614355 1.43679 -5.1458
L_UpperArm  -39.8159 -11.4541 -23.7015
L_Forearm  21.4199 2.85223 3.29629
L_Hand  -0.132208 -10.2272 4.14473
L_Thigh  -31.2921 -16.9079 4.94211
L_Calf  -10.1252 7.82403 -89.1418
L_Foot  4.09493 -4.02895 27.4605
L_Toe0  5.19281 -2.75567 14.4127
R_Thigh  4.62627 9.79653 24.1429
R_Calf  3.09678 0.520176 1.62145
R_Foot  2.89322 8.96876 -9.36208
R_Toe0  -1.78853 -0.272769 -17.3235
254
root  9.55376 13.5266 19.4366 120.723 12.9976 152.276
Spine  -28.9662 -16.0728 25.022
Spine1  -25.1026 32.9983 -5.4795
Neck  3.97569e-016 0 -2.38542e-015
Head  -0.361944 -5.23898 43.3612
R_Clavicle  0.965114 5.53825 4.39335
R_UpperArm  55.6003 -28.2014 18.4751
R_Forearm  -2.34508 4.4556 -4.86747
R_Hand  -25.1204 39.8944 -74.9506
L_Clavicle  0.31453 6.33532 -5.65494
L_UpperArm  -35.0955 -14.3715 -21.0817
L_Forearm  10.1022 17.1177 20.8826
L_Hand  -0.0813265 -8.17286 4.63416
L_Thigh  -30.7912 -11.2008 9.9662
L_Calf  -9.86122 7.69617 -79.7881
L_Foot  1.78784 -4.75301 17.9025
L_Toe0  -0.879799 0.298346 -2.64395
R_Thigh  -2.99449 16.8999 19.5835
R_Calf  5.57543 -3.59478 -11.2066
R_Foot  1.54108 4.31099 -4.2085
R_Toe0  -1.63658 -0.29341 -17.4672
255
root  9.83588 15.0243 18.513 107.432 7.65506 156.227
Spine  -30.4141 -20.2135 26.884
Spine1  -24.8657 32.8323 -6.02792
Neck  3.97569e-016 0 -2.38542e-015
Head  2.2692 -4.33756 39.9989
R_Clavicle  0.963231 6.88139 4.29396
R_UpperArm  53.8788 -19.3825 12.7058
R_Forearm  4.17132 3.78491 -5.17369
R_Hand  -23.4272 38.9421 -72.6167
L_Clavicle  0.234463 7.04248 -5.39773
L_UpperArm  -26.1127 -20.4924 -23.0892
L_Forearm  -2.90499 30.6239 40.779
L_Hand  0.0476279 -5.00461 7.37125
L_Thigh  -22.9097 -5.49775 16.715
L_Calf  -24.3009 7.31864 -69.3365
L_Foot  2.9409 0.16792 14.2084
L_Toe0  0.5825 0.0323163 -6.55351
R_Thigh  -10.1655 17.1564 13.5623
R_Calf  9.78652 -7.97577 -25.6918
R_Foot  -1.13545 -2.38756 3.2329
R_Toe0  -2.87757 -0.192972 -16.2979
